grf
version=1
nRows=15
nColumns=37
inDegrees=no
endheader
time	ground_force_1_vx	ground_force_1_vy	ground_force_1_vz	ground_force_1_px	ground_force_1_py	ground_force_1_pz	ground_moment_1_mx	ground_moment_1_my	ground_moment_1_mz	ground_force_2_vx	ground_force_2_vy	ground_force_2_vz	ground_force_2_px	ground_force_2_py	ground_force_2_pz	ground_moment_2_mx	ground_moment_2_my	ground_moment_2_mz	ground_force_3_vx	ground_force_3_vy	ground_force_3_vz	ground_force_3_px	ground_force_3_py	ground_force_3_pz	ground_moment_3_mx	ground_moment_3_my	ground_moment_3_mz	ground_force_4_vx	ground_force_4_vy	ground_force_4_vz	ground_force_4_px	ground_force_4_py	ground_force_4_pz	ground_moment_4_mx	ground_moment_4_my	ground_moment_4_mz
      1.47000000	      0.00000000	     -0.00000000	      0.00000000	      0.00000000	      0.00000000	      0.00000000	      0.00000000	      0.00000000	      0.00000000	      0.12355373	     11.85434341	   -311.64065552	   -298.82966098	  -1123.65166428	      0.00000000	      0.00000000	      0.00000000	   4702.47052888	     -0.69259225	    -15.96920583	   -333.93627930	   -297.00633221	   -696.23784579	      0.00000000	      0.00000000	     -0.00000000	  -5190.77168577	      0.00000000	     -0.00000000	      0.00000000	      0.00000000	      0.00000000	      0.00000000	      0.00000000	      0.00000000	      0.00000000
      1.48000000	      0.00000000	     -0.00000000	      0.00000000	      0.00000000	      0.00000000	      0.00000000	      0.00000000	      0.00000000	      0.00000000	      0.53526306	     11.51483727	   -310.79833984	   -298.35630229	  -1123.62547465	      0.00000000	      0.00000000	      0.00000000	   4755.82758927	     -0.17742226	    -15.80958175	   -333.58874512	   -297.15967412	   -695.98603256	      0.00000000	      0.00000000	     -0.00000000	  -5320.11874164	      0.00000000	     -0.00000000	      0.00000000	      0.00000000	      0.00000000	      0.00000000	      0.00000000	      0.00000000	      0.00000000
      1.49000000	      0.00000000	     -0.00000000	      0.00000000	      0.00000000	      0.00000000	      0.00000000	      0.00000000	      0.00000000	      0.00000000	      0.55214709	     11.05216980	   -309.51931763	   -298.44020856	  -1123.09775151	      0.00000000	      0.00000000	      0.00000000	   4754.20976476	     -0.03828521	    -15.82167053	   -331.19421387	   -299.01654675	   -698.37838629	      0.00000000	      0.00000000	     -0.00000000	  -5235.13354585	      0.00000000	     -0.00000000	      0.00000000	      0.00000000	      0.00000000	      0.00000000	      0.00000000	      0.00000000	      0.00000000
      1.50000000	      0.00000000	     -0.00000000	      0.00000000	      0.00000000	      0.00000000	      0.00000000	      0.00000000	      0.00000000	      0.00000000	      0.68016458	     10.81826782	   -308.89978027	   -298.52238247	  -1122.59238366	      0.00000000	      0.00000000	      0.00000000	   4598.20153851	      0.53226404	    -15.40119746	   -330.97494507	   -299.44826762	   -698.54831720	      0.00000000	      0.00000000	     -0.00000000	  -5205.45907715	      0.00000000	     -0.00000000	      0.00000000	      0.00000000	      0.00000000	      0.00000000	      0.00000000	      0.00000000	      0.00000000
      1.51000000	      0.00000000	     -0.00000000	      0.00000000	      0.00000000	      0.00000000	      0.00000000	      0.00000000	      0.00000000	      0.00000000	      1.03730071	     10.92984390	   -310.02621460	   -298.97822716	  -1122.38024512	      0.00000000	      0.00000000	      0.00000000	   4655.52111933	      1.10362262	    -14.97576432	   -331.69403076	   -299.97818159	   -698.13982878	      0.00000000	      0.00000000	     -0.00000000	  -5482.83652654	      0.00000000	     -0.00000000	      0.00000000	      0.00000000	      0.00000000	      0.00000000	      0.00000000	      0.00000000	      0.00000000
      1.52000000	      0.00000000	     -0.00000000	      0.00000000	      0.00000000	      0.00000000	      0.00000000	      0.00000000	      0.00000000	      0.00000000	      0.90857756	     10.92328167	   -311.11340332	   -299.08609382	  -1122.89833798	      0.00000000	      0.00000000	      0.00000000	   4642.98638865	      1.05781550	    -14.78906064	   -332.65051270	   -300.47687504	   -698.03006449	      0.00000000	      0.00000000	     -0.00000000	  -5250.50119418	      0.00000000	     -0.00000000	      0.00000000	      0.00000000	      0.00000000	      0.00000000	      0.00000000	      0.00000000	      0.00000000
      1.53000000	      0.00000000	     -0.00000000	      0.00000000	      0.00000000	      0.00000000	      0.00000000	      0.00000000	      0.00000000	      0.00000000	      1.00519907	     10.77723408	   -310.70382690	   -299.75563395	  -1120.87225737	      0.00000000	      0.00000000	      0.00000000	   4533.22917801	      1.56427428	    -14.45238025	   -332.96264648	   -301.97880348	   -699.40145099	      0.00000000	      0.00000000	     -0.00000000	  -5243.17503029	      0.00000000	     -0.00000000	      0.00000000	      0.00000000	      0.00000000	      0.00000000	      0.00000000	      0.00000000	      0.00000000
      1.54000000	      0.00000000	     -0.00000000	      0.00000000	      0.00000000	      0.00000000	      0.00000000	      0.00000000	      0.00000000	      0.00000000	      0.65687251	     10.84951782	   -315.22979736	   -299.16692980	  -1123.77050453	      0.00000000	      0.00000000	      0.00000000	   4710.55833674	      1.70163239	    -13.35263164	   -333.34454346	   -302.58905953	   -699.81605942	      0.00000000	     -0.00000000	     -0.00000000	  -5191.91488061	      0.00000000	     -0.00000000	      0.00000000	      0.00000000	      0.00000000	      0.00000000	      0.00000000	      0.00000000	      0.00000000
      1.55000000	      0.00000000	     -0.00000000	      0.00000000	      0.00000000	      0.00000000	      0.00000000	      0.00000000	      0.00000000	      0.00000000	     -0.13921499	     11.19835567	   -316.86596680	   -299.51762153	  -1123.34881110	      0.00000000	      0.00000000	      0.00000000	   4724.96087157	      2.11307682	    -13.32942781	   -336.55392456	   -302.87291834	   -697.29246603	      0.00000000	      0.00000000	     -0.00000000	  -5352.26811653	      0.00000000	     -0.00000000	      0.00000000	      0.00000000	      0.00000000	      0.00000000	      0.00000000	      0.00000000	      0.00000000
      1.56000000	      0.00000000	     -0.00000000	      0.00000000	      0.00000000	      0.00000000	      0.00000000	      0.00000000	      0.00000000	      0.00000000	     -0.65003765	     11.69198036	   -317.38281250	   -300.62550264	  -1121.44226462	      0.00000000	      0.00000000	      0.00000000	   4756.31680401	      1.42571238	    -12.98328787	   -333.11563110	   -303.11422334	   -700.81188491	      0.00000000	      0.00000000	     -0.00000000	  -5078.74649376	      0.00000000	     -0.00000000	      0.00000000	      0.00000000	      0.00000000	      0.00000000	      0.00000000	      0.00000000	      0.00000000
      1.57000000	      0.00000000	     -0.00000000	      0.00000000	      0.00000000	      0.00000000	      0.00000000	      0.00000000	      0.00000000	      0.00000000	     -0.74522752	     11.51899433	   -319.42102051	   -300.14750597	  -1122.81069417	      0.00000000	      0.00000000	      0.00000000	   4746.83513582	      1.43507474	    -12.48462588	   -333.62521362	   -303.58025874	   -700.18593463	      0.00000000	      0.00000000	     -0.00000000	  -5132.96905686	      0.00000000	     -0.00000000	      0.00000000	      0.00000000	      0.00000000	      0.00000000	      0.00000000	      0.00000000	      0.00000000
      1.58000000	      0.00000000	     -0.00000000	      0.00000000	      0.00000000	      0.00000000	      0.00000000	      0.00000000	      0.00000000	      0.00000000	     -1.69038486	     11.91222668	   -322.16201782	   -298.63171332	  -1122.73340103	      0.00000000	      0.00000000	      0.00000000	   4614.89987207	      1.38823334	    -12.77564246	   -333.21319580	   -304.10672702	   -700.40483482	      0.00000000	      0.00000000	     -0.00000000	  -5312.53026432	      0.00000000	     -0.00000000	      0.00000000	      0.00000000	      0.00000000	      0.00000000	      0.00000000	      0.00000000	      0.00000000
      1.59000000	      0.00000000	     -0.00000000	      0.00000000	      0.00000000	      0.00000000	      0.00000000	      0.00000000	      0.00000000	      0.00000000	     -1.25648963	     12.16441631	   -324.55743408	   -299.68208683	  -1123.50359818	      0.00000000	      0.00000000	      0.00000000	   4744.96168229	      1.24195043	    -12.72983556	   -335.01861572	   -304.14623503	   -700.27930559	      0.00000000	      0.00000000	     -0.00000000	  -5290.19643664	      0.00000000	     -0.00000000	      0.00000000	      0.00000000	      0.00000000	      0.00000000	      0.00000000	      0.00000000	      0.00000000
      1.60000000	      0.00000000	     -0.00000000	      0.00000000	      0.00000000	      0.00000000	      0.00000000	      0.00000000	      0.00000000	      0.00000000	     -1.42736816	     12.13706970	   -325.40026855	   -299.77470044	  -1122.40396574	      0.00000000	      0.00000000	      0.00000000	   4750.05489990	      1.18380480	    -12.48081689	   -336.64230347	   -304.62233894	   -698.87272041	      0.00000000	      0.00000000	     -0.00000000	  -5283.97720908	      0.00000000	     -0.00000000	      0.00000000	      0.00000000	      0.00000000	      0.00000000	      0.00000000	      0.00000000	      0.00000000
      1.61000000	      0.00000000	     -0.00000000	      0.00000000	      0.00000000	      0.00000000	      0.00000000	      0.00000000	      0.00000000	      0.00000000	     -2.36507726	     12.38712978	   -328.97528076	   -300.31985713	  -1124.32688526	      0.00000000	      0.00000000	      0.00000000	   4698.47840599	      1.44964322	    -11.70367057	   -334.89599609	   -304.51438760	   -699.54795006	      0.00000000	      0.00000000	     -0.00000000	  -5172.19782093	      0.00000000	     -0.00000000	      0.00000000	      0.00000000	      0.00000000	      0.00000000	      0.00000000	      0.00000000	      0.00000000
